<svg width="50" height="50" viewBox="0 0 50 50" fill="none" xmlns="http://www.w3.org/2000/svg">
<g clip-path="url(#clip0_12_179)">
<path d="M25.0001 50C38.8072 50 50.0001 38.8071 50.0001 25C50.0001 11.1929 38.8072 0 25.0001 0C11.193 0 9.91821e-05 11.1929 9.91821e-05 25C9.91821e-05 38.8071 11.193 50 25.0001 50Z" fill="url(#paint0_linear_12_179)"/>
<path d="M32.6561 48.8058L15.5648 31.7134L13.7207 24.9998L13.3402 17.0845L20.2433 23.9876L26.8044 16.8931L31.2811 21.3688L39.2581 16.8963L49.8756 27.5097C49.8756 27.5097 49.6389 29.5021 49.3918 30.5045C49.1447 31.5068 48.8381 32.6383 48.5598 33.3826C48.2815 34.127 47.9838 34.8859 47.735 35.4121C47.4861 35.9382 47.2496 36.4483 46.9281 37.0158C46.6066 37.5834 46.4379 37.893 46.1282 38.3696C45.8184 38.8462 45.4786 39.3848 45.0041 39.9968C44.5295 40.6087 44.4436 40.7713 43.8131 41.4644C43.1827 42.1573 42.8966 42.5091 42.1814 43.1602C41.4662 43.8112 41.1137 44.1564 40.3964 44.6975C39.6792 45.2386 38.7712 45.9062 38.0005 46.3578C37.2298 46.8093 36.6193 47.165 35.9577 47.4765C35.296 47.7879 34.6352 48.0933 34.0375 48.3161C33.4399 48.539 33.27 48.6173 32.6561 48.8058Z" fill="url(#paint1_linear_12_179)"/>
<path d="M40.4727 34.4741C40.463 34.3127 40.4272 34.1198 40.3631 33.9708C40.2253 33.6508 40.0312 33.3187 39.8226 33.0398C38.7358 31.5872 38.0147 30.8452 37.4713 30.2599C36.9278 29.6748 34.6914 27.5636 34.5451 27.1457C34.3988 26.7276 34.3517 26.5421 34.7671 25.9778C35.1826 25.4134 36.0918 23.9895 36.8025 22.9654C37.2482 22.323 37.6531 21.6514 38.0531 20.9801C38.5247 20.1886 38.9683 19.3779 39.3463 18.5373C39.5153 18.1614 39.6687 17.8189 39.5641 17.3978C39.4939 17.1156 39.3352 16.8677 39.0397 16.7981C38.8784 16.7601 38.7023 16.7562 38.5373 16.7562C37.9207 16.7562 36.3112 16.7562 36.3112 16.7562C36.0203 16.7562 35.7293 16.752 35.4384 16.7525C35.1401 16.753 34.8393 16.7507 34.5419 16.7762C34.1187 16.8124 33.8594 17.1387 33.6466 17.4677C33.3862 17.8703 33.1492 18.2892 32.8966 18.6968C32.7239 18.9754 32.5549 19.2562 32.3889 19.5388C32.1295 19.9802 31.8624 20.4168 31.5952 20.8536C31.4843 21.0347 31.373 21.2157 31.2637 21.3978C30.9501 21.9202 28.233 25.4944 27.6895 25.6408C27.1461 25.7872 26.958 25.7454 26.958 24.6375C26.958 23.5297 26.958 17.2384 26.958 17.2384C26.958 17.2384 26.9163 16.7533 26.4564 16.7533C25.9966 16.7533 23.8637 16.7533 23.8637 16.7533H19.4648C19.4648 16.7533 18.4302 16.7576 18.796 17.6878C19.1618 18.6179 20.2435 18.9001 20.2435 20.452C20.2435 22.0039 20.2435 26.5343 20.2435 26.5343C20.2435 26.5343 20.0606 27.8981 18.8796 26.7694C17.949 25.88 17.1823 24.8284 16.5048 23.7381C15.8004 22.6045 15.2329 21.4269 14.7274 20.1931C14.5829 19.8402 14.4397 19.4867 14.2912 19.1355C14.1362 18.7688 13.9827 18.4016 13.834 18.0323C13.6614 17.6034 13.4768 17.0428 13.0113 16.8454C12.7773 16.7461 12.5186 16.751 12.2691 16.751C11.3442 16.7513 10.4193 16.7539 9.49438 16.7521C9.223 16.7516 8.95161 16.7513 8.68022 16.752C8.03945 16.7535 7.24248 16.7346 7.09048 17.5351C7.00288 17.9962 7.177 18.4884 7.32275 18.9202C7.38887 19.1165 7.47036 19.3052 7.54429 19.4982C7.92026 20.4796 8.38369 21.4259 8.86201 22.3606C9.99858 24.5813 11.169 26.7392 12.7383 28.691C14.3242 30.6635 16.1966 32.575 18.4022 33.851C19.0156 34.2059 19.6605 34.5053 20.3322 34.7329C22.924 35.6107 25.7666 35.5271 26.6444 34.9419C27.5223 34.3566 26.4772 30.5107 27.2714 30.0509C28.0657 29.5911 29.487 30.5944 30.532 31.5141C31.5771 32.4337 32.3713 33.2279 32.9566 33.855C33.3231 34.2477 33.5812 34.7163 34.0589 34.9964C34.8493 35.4596 35.9023 35.4083 36.7839 35.4107C37.2754 35.4121 37.767 35.4138 38.2585 35.4076C38.5907 35.4035 38.9229 35.4143 39.2549 35.3982C39.8002 35.3718 40.5136 35.1564 40.4727 34.4741Z" fill="white"/>
</g>
<defs>
<linearGradient id="paint0_linear_12_179" x1="33.5526" y1="48.4988" x2="16.4476" y2="1.50117" gradientUnits="userSpaceOnUse">
<stop/>
<stop offset="0.1921" stop-color="#090909"/>
<stop offset="0.5054" stop-color="#212121"/>
<stop offset="0.8987" stop-color="#494948"/>
<stop offset="1" stop-color="#545453"/>
</linearGradient>
<linearGradient id="paint1_linear_12_179" x1="16.7664" y1="13.6583" x2="44.238" y2="41.1299" gradientUnits="userSpaceOnUse">
<stop/>
<stop offset="0.4833" stop-color="#090909" stop-opacity="0.5167"/>
<stop offset="1" stop-color="#181818" stop-opacity="0"/>
</linearGradient>
<clipPath id="clip0_12_179">
<rect width="50" height="50" fill="white"/>
</clipPath>
</defs>
</svg>
