<svg width="50" height="50" viewBox="0 0 50 50" fill="none" xmlns="http://www.w3.org/2000/svg">
<path d="M43.75 6.25H6.25C2.79844 6.25 0 9.04844 0 12.5V37.5C0 40.9516 2.79844 43.75 6.25 43.75H43.75C47.2016 43.75 50 40.9516 50 37.5V12.5C50 9.04844 47.2016 6.25 43.75 6.25ZM33.4625 22.9278L46.6919 11.5905C46.7835 11.8835 46.875 12.1765 46.875 12.5V37.5C46.875 37.7167 46.7926 37.909 46.7499 38.1134L33.4625 22.9278ZM43.75 9.375C43.9575 9.375 44.1406 9.45439 44.3359 9.49404L25 26.0682L5.66406 9.49404C5.85938 9.45439 6.04248 9.375 6.25 9.375H43.75ZM3.24863 38.1104C3.20586 37.9059 3.125 37.7167 3.125 37.5V12.5C3.125 12.1765 3.21807 11.8835 3.30967 11.5905L16.5345 22.9248L3.24863 38.1104ZM6.25 40.625C5.93418 40.625 5.64727 40.5334 5.35889 40.4449L18.9087 24.9603L23.9838 29.309C24.2752 29.5624 24.6384 29.6875 25 29.6875C25.3616 29.6875 25.7248 29.5624 26.0162 29.3091L31.0913 24.9604L44.6411 40.445C44.3543 40.5334 44.0674 40.625 43.75 40.625H6.25Z" fill="black"/>
</svg>
