<svg width="35" height="35" viewBox="0 0 35 35" fill="none" xmlns="http://www.w3.org/2000/svg">
<path d="M34.1243 23.5697C34.1264 21.4176 34.1229 10.611 34.1243 8.69855C34.1639 5.62205 30.5074 3.7884 28.0662 5.66965C26.8055 6.622 18.949 12.5027 17.5 13.5947C16.0139 12.48 8.2516 6.65805 6.9335 5.66965C4.4996 3.79155 0.832654 5.61785 0.875704 8.6989V11.6333C0.880954 11.7835 0.947804 11.9301 1.0696 12.0215L8.21135 17.3775V29.1211H3.56125C2.6152 29.1211 1.84555 28.3514 1.84555 27.4054V14.0039C1.84275 13.3721 0.882354 13.3634 0.875354 14.0039V27.4057C0.875354 28.8869 2.08005 30.0916 3.56125 30.0916H8.69645C8.9642 30.0916 9.18155 29.8743 9.18155 29.6065V18.1055L17.2088 24.1259C17.3814 24.255 17.6187 24.255 17.7912 24.1259L25.8185 18.1055V29.6065C25.8185 29.8743 26.0358 30.0916 26.3036 30.0916H31.4388C32.92 30.0916 34.1247 28.8869 34.1247 27.4057V25.6277C34.1061 24.9837 33.1685 24.9935 33.1545 25.6277V27.4057C33.1545 28.3518 32.3848 29.1214 31.4388 29.1214H26.7883V17.3775L33.1541 12.6032V23.5697C33.1576 24.2029 34.1173 24.2085 34.1243 23.5697ZM8.21135 16.1648L1.84555 11.3901V8.6982C1.84555 7.6083 2.4276 6.6668 3.402 6.17925C4.3764 5.69135 5.4789 5.7904 6.3511 6.44525L8.211 7.84V16.1648H8.21135ZM25.8181 16.8924L17.4997 23.1312L9.18155 16.8924V8.568L17.2088 14.5887C17.3814 14.7182 17.6187 14.7182 17.7912 14.5887L25.8181 8.568V16.8924ZM26.7883 16.1648V7.84035L28.6482 6.4456C30.4217 5.0302 33.2231 6.43055 33.1541 8.69855V11.3901L26.7883 16.1648Z" fill="black"/>
</svg>
