<svg width="100" height="100" viewBox="0 0 100 100" fill="none" xmlns="http://www.w3.org/2000/svg">
<path d="M18.4438 85.0031L11.4219 6.25H88.5781L81.5469 84.9906L49.9531 93.75L18.4438 85.0031Z" fill="#E44F26"/>
<path d="M50 87.0563L75.5312 79.9782L81.5375 12.6907H50V87.0563Z" fill="#F1662A"/>
<path d="M50 41.8969H37.2188L36.3375 32.0063H50V22.3469H49.9656H25.7812L26.0125 24.9407L28.3844 51.5563H50V41.8969Z" fill="#EBEBEB"/>
<path d="M50 66.9812L49.9562 66.9937L39.2 64.0906L38.5125 56.3875H33.2844H28.8156L30.1687 71.5499L49.9562 77.0437L50 77.0312V66.9812Z" fill="#EBEBEB"/>
<path d="M49.9656 41.8969V51.5562H61.8594L60.7406 64.0844L49.9656 66.9906V77.0406L69.7688 71.55L69.9125 69.9187L72.1813 44.4906L72.4188 41.8969H69.8156H49.9656Z" fill="white"/>
<path d="M49.9656 22.3469V28.3469V31.9844V32.0063H73.2656H73.2969L73.4906 29.8376L73.9313 24.9407L74.1625 22.3469H49.9656Z" fill="white"/>
</svg>
