<svg width="100" height="100" viewBox="0 0 100 100" fill="none" xmlns="http://www.w3.org/2000/svg">
<path d="M90.6562 15.7188L72.6375 7.04377C71.6199 6.55313 70.4749 6.39123 69.3612 6.58048C68.2475 6.76974 67.2202 7.30079 66.4219 8.10002L7.4375 61.875C6.72185 62.5244 6.29346 63.4315 6.24657 64.3967C6.19969 65.3619 6.53815 66.3062 7.1875 67.0219C7.26562 67.1063 7.34375 67.1875 7.42812 67.2625L12.2437 71.6375C12.873 72.2102 13.683 72.5444 14.533 72.5821C15.383 72.6198 16.2194 72.3586 16.8969 71.8438L87.9437 17.9688C88.4804 17.5616 89.12 17.3122 89.7907 17.2488C90.4613 17.1854 91.1364 17.3105 91.7398 17.6099C92.3433 17.9094 92.8511 18.3713 93.2063 18.9437C93.5614 19.5162 93.7497 20.1764 93.75 20.85V20.6406C93.7499 19.6122 93.4595 18.6047 92.9122 17.734C92.3649 16.8633 91.583 16.1647 90.6562 15.7188Z" fill="#0065A9"/>
<path d="M90.6562 84.2812L72.6375 92.9593C71.6196 93.4486 70.475 93.6097 69.3616 93.4205C68.2482 93.2313 67.221 92.7011 66.4219 91.9031L7.4375 38.125C6.72185 37.4756 6.29346 36.5685 6.24657 35.6033C6.19969 34.6381 6.53815 33.6938 7.1875 32.9781C7.26562 32.8937 7.34375 32.8125 7.42812 32.7375L12.2437 28.3625C12.8736 27.7873 13.6855 27.4517 14.5376 27.414C15.3897 27.3763 16.228 27.639 16.9062 28.1562L87.9437 82.0312C88.4804 82.4384 89.12 82.6878 89.7907 82.7512C90.4613 82.8146 91.1364 82.6895 91.7398 82.3901C92.3433 82.0906 92.8511 81.6287 93.2063 81.0562C93.5614 80.4838 93.7497 79.8236 93.75 79.15V79.375C93.7466 80.4007 93.4547 81.4047 92.9076 82.2723C92.3605 83.1399 91.5803 83.8361 90.6562 84.2812Z" fill="#007ACC"/>
<path d="M72.6375 92.9594C71.6196 93.4486 70.4749 93.6097 69.3616 93.4205C68.2482 93.2313 67.221 92.7011 66.4219 91.9031C66.8706 92.346 67.4401 92.6466 68.059 92.7673C68.6779 92.8879 69.3186 92.8232 69.9009 92.5813C70.4831 92.3394 70.981 91.931 71.3322 91.4073C71.6834 90.8837 71.8722 90.268 71.875 89.6375V10.3625C71.8755 9.72899 71.688 9.10962 71.3362 8.5828C70.9844 8.05598 70.4842 7.64542 69.8989 7.40313C69.3136 7.16084 68.6696 7.09773 68.0483 7.22178C67.4271 7.34583 66.8567 7.65146 66.4094 8.09997C67.2079 7.30103 68.2349 6.76995 69.3484 6.58016C70.4619 6.39038 71.6069 6.55127 72.625 7.04059L90.6406 15.7031C91.5702 16.1468 92.3555 16.8444 92.9056 17.7153C93.4558 18.5862 93.7485 19.5949 93.75 20.625V79.375C93.7502 80.4043 93.4597 81.4127 92.9118 82.284C92.3638 83.1554 91.5809 83.8542 90.6531 84.3L72.6375 92.9594Z" fill="#1F9CF0"/>
</svg>
