<svg width="100" height="100" viewBox="0 0 100 100" fill="none" xmlns="http://www.w3.org/2000/svg">
<path d="M91.5625 39.6875C92.8411 38.3996 93.5586 36.6585 93.5586 34.8437C93.5586 33.029 92.8411 31.2878 91.5625 30C91.2278 29.3214 90.6786 28.7721 90 28.4375C86.5372 26.2458 82.5352 25.056 78.4375 25C77.4551 24.8577 76.4547 25.08 75.625 25.625C71.2843 25.9529 67.1444 27.5871 63.75 30.3125C63.4375 30.625 63.125 30.9375 62.5 30.625C60.6689 29.4762 58.6638 28.632 56.5625 28.125C53.4431 27.1556 50.1499 26.8771 46.912 27.3088C43.6741 27.7406 40.569 28.8722 37.8125 30.625L35.9375 29.0625C32.772 27.2741 29.2507 26.2071 25.625 25.9375C21.7 25.7684 17.8102 26.7411 14.4268 28.7379C11.0434 30.7346 8.31164 33.6697 6.5625 37.1875C6.29903 37.7752 6.1914 38.421 6.25 39.0625C6.23415 40.833 6.68869 42.576 7.56717 44.1134C8.44565 45.6507 9.71655 46.9272 11.25 47.8125C14.6169 49.8955 18.5489 50.8785 22.5 50.625H25.9375C25.4806 51.2834 25.1617 52.0275 25 52.8125C24.23 55.2406 23.8091 57.7659 23.75 60.3125C23.4757 63.3192 24.357 66.3174 26.2147 68.6975C28.0723 71.0776 30.7667 72.6607 33.75 73.125C38.9924 74.3563 44.3199 75.192 49.6875 75.625C52.3867 75.9404 55.1134 75.9404 57.8125 75.625C61.7934 74.9591 65.6769 73.8045 69.375 72.1875C71.6823 70.939 73.6218 69.1072 75 66.875C76.4914 65.1421 77.2728 62.9096 77.1875 60.625C77.09 58.3091 76.7761 56.0074 76.25 53.75C76.25 53.125 75.9375 52.5 76.875 52.5L80.9375 50.9375C84.4237 50.1179 87.5819 48.2665 90 45.625C90.5279 45.1055 90.874 44.4294 90.9866 43.6974C91.0992 42.9654 90.9724 42.2166 90.625 41.5625C90.3125 40.625 90.3125 40.3125 90.9375 40L91.5625 39.6875Z" fill="#A6ACB4"/>
<path d="M42.8125 64.0625C43.3135 61.2757 44.7459 58.7416 46.875 56.875C48.1624 55.846 49.8042 55.3672 51.443 55.5428C53.0817 55.7184 54.5848 56.5341 55.625 57.8125V58.4375L57.5 62.1875C57.5538 63.02 57.5538 63.8551 57.5 64.6875C56.7863 66.7237 55.3196 68.409 53.4015 69.3971C51.4835 70.3852 49.2597 70.601 47.1875 70H46.875C45.6687 69.5494 44.631 68.7372 43.9038 67.6744C43.1766 66.6116 42.7955 65.3502 42.8125 64.0625Z" fill="#4B5B64"/>
<path d="M42.8125 64.0624L44.375 67.1874C45.4125 68.4415 46.8613 69.2868 48.4635 69.5729C50.0658 69.859 51.7176 69.5674 53.125 68.7499C55.005 67.887 56.4659 66.3136 57.1875 64.3749C57.5 64.0624 57.5 63.4374 57.5 62.8124C57.5 62.1874 57.5 62.1874 57.8125 62.4999C58.6643 64.2442 58.9901 66.1987 58.75 68.1249C58.6948 68.6754 58.5277 69.2088 58.259 69.6925C57.9904 70.1761 57.6257 70.5997 57.1875 70.9374C55.8326 71.9872 54.2499 72.7038 52.5672 73.0295C50.8845 73.3551 49.1487 73.2808 47.5 72.8124C45.903 72.3741 44.518 71.3741 43.5994 69.9962C42.6808 68.6183 42.2904 66.9551 42.5 65.3124L42.8125 64.0624Z" fill="#283037"/>
<path d="M33.125 63.4375C32.8315 62.7185 32.7346 61.9342 32.8445 61.1653C32.9543 60.3964 33.2669 59.6707 33.75 59.0625C33.9082 58.7284 34.1385 58.4335 34.4244 58.199C34.7103 57.9646 35.0446 57.7965 35.4033 57.7068C35.7619 57.6172 36.136 57.6082 36.4986 57.6805C36.8612 57.7528 37.2032 57.9046 37.5 58.125L38.4375 59.375C38.8724 60.3312 38.92 61.4186 38.5704 62.4091C38.2209 63.3996 37.5012 64.2162 36.5625 64.6875C36.0214 65.0529 35.3588 65.192 34.7164 65.0752C34.0741 64.9584 33.5029 64.5949 33.125 64.0625V63.4375Z" fill="#0A090B"/>
<path d="M62.8125 63.4375C63.1705 64.005 63.6867 64.4554 64.2975 64.733C64.9083 65.0107 65.5871 65.1035 66.25 65C66.7747 64.8154 67.2329 64.4794 67.5667 64.0344C67.9004 63.5894 68.0947 63.0554 68.125 62.5C68.1989 61.7182 67.9758 60.9373 67.5 60.3125L66.25 59.0625C65.8433 58.6611 65.3113 58.4112 64.7427 58.3543C64.1741 58.2975 63.6032 58.4371 63.125 58.75C62.6442 59.0155 62.2808 59.4522 62.1071 59.9732C61.9335 60.4943 61.9621 61.0616 62.1875 61.5625V62.1875L62.8125 63.4375Z" fill="#0A090B"/>
<path d="M33.125 63.4375C34.375 64.6875 35 65 36.25 64.375C37.0151 64.0124 37.6586 63.4355 38.1024 62.7144C38.5461 61.9933 38.7711 61.1589 38.75 60.3125C38.75 60 38.75 59.6875 38.75 59.375C39.1193 59.8675 39.3881 60.4278 39.5408 61.0242C39.6936 61.6205 39.7274 62.241 39.6404 62.8504C39.5533 63.4598 39.3471 64.0461 39.0335 64.5757C38.7198 65.1054 38.305 65.5682 37.8125 65.9375H37.5C37.1106 66.0865 36.6953 66.1561 36.2786 66.1422C35.8618 66.1282 35.4521 66.031 35.0735 65.8563C34.695 65.6816 34.3552 65.4328 34.0742 65.1248C33.7932 64.8167 33.5767 64.4555 33.4375 64.0625L33.125 63.4375Z" fill="#8E949C"/>
<path d="M65 66.25C65.465 66.5041 66.0064 66.5809 66.5237 66.4659C67.041 66.351 67.4989 66.0522 67.8125 65.625C68.3517 64.8283 68.6134 63.8761 68.5569 62.9158C68.5004 61.9554 68.1289 61.0405 67.5 60.3125V61.875C67.5875 62.4146 67.5159 62.9679 67.2939 63.4674C67.0719 63.9669 66.7091 64.3909 66.25 64.6875C65.3125 65.3125 64.375 64.6875 63.75 64.0625C63.0907 63.5672 62.5558 62.9253 62.1875 62.1875C62.2643 63.0503 62.5638 63.8783 63.0569 64.5904C63.5499 65.3026 64.2195 65.8745 65 66.25Z" fill="#8E949C"/>
<path d="M84.375 32.8125H84.6875C84.0625 37.1875 83.4375 40.625 78.4375 42.5L74.6875 43.75C74.2248 43.846 73.7443 43.8089 73.3019 43.6429C72.8594 43.477 72.473 43.1891 72.1875 42.8125C71.3819 41.8904 70.747 40.8322 70.3125 39.6875C70.2643 39.3171 70.3277 38.9408 70.4947 38.6067C70.6618 38.2727 70.9248 37.9961 71.25 37.8125C73.8092 35.6588 76.7892 34.0624 80 33.125L84.375 32.8125Z" fill="#D48691"/>
<path d="M19.375 44.6875H25.3125C26.875 44.375 28.4375 44.6875 28.4375 42.5C28.3889 41.96 28.4974 41.4174 28.75 40.9375C28.9308 40.7773 29.0428 40.5534 29.0625 40.3125C28.75 39.6875 29.375 39.375 29.0625 38.75H27.5C23.5913 38.5312 19.6981 39.3963 16.25 41.25C15 42.5 15.3125 42.8125 16.5625 43.75L18.4375 44.6875H19.375Z" fill="#D48691"/>
<path d="M84.375 32.8125L76.25 35.3125L71.25 38.4375L70.3125 39.6875C68.4375 36.25 68.75 36.5625 71.5625 34.6875C73.448 33.4958 75.5627 32.7131 77.7697 32.3901C79.9768 32.0671 82.2271 32.211 84.375 32.8125Z" fill="#C95E66"/>
<path d="M29.0625 39.0625C30 36.5625 29.6875 36.25 27.1875 35.9375H26.25C22.4795 36.529 18.9855 38.276 16.25 40.9375L18.125 40.3125C21.5203 39.0711 25.1593 38.6429 28.75 39.0625H29.0625Z" fill="#C95E66"/>
<path d="M35.3125 59.375C35.3125 58.75 35.625 58.125 36.25 58.4375C36.7168 58.5762 37.1239 58.8667 37.4069 59.2629C37.6899 59.6591 37.8327 60.1385 37.8125 60.625C37.8125 61.25 37.5 61.875 36.5625 61.875C35.625 61.875 35.3125 60.3125 35.3125 59.375Z" fill="#FCFDFC"/>
<path d="M64.6875 58.75C64.4036 58.741 64.1252 58.829 63.898 58.9994C63.6708 59.1698 63.5084 59.4125 63.4375 59.6875C63.4285 59.9714 63.5165 60.2498 63.6869 60.477C63.8573 60.7043 64.1 60.8667 64.375 60.9375C65 60.9375 65.3125 60.625 65.625 60C65.634 59.7162 65.546 59.4377 65.3756 59.2105C65.2052 58.9833 64.9625 58.8209 64.6875 58.75Z" fill="#FCFDFC"/>
</svg>
