<svg width="100" height="100" viewBox="0 0 100 100" fill="none" xmlns="http://www.w3.org/2000/svg">
<path d="M81.5938 54.9125C78.8459 54.9161 76.1349 55.5444 73.6656 56.75C72.8925 55.467 72.2955 54.0859 71.8906 52.6437C71.658 51.5133 71.6042 50.3534 71.7313 49.2062C71.9984 47.944 72.3449 46.6998 72.7688 45.4812C72.7531 45.3219 72.5781 44.5687 70.8188 44.5437C69.0594 44.5187 67.5438 44.8781 67.3813 45.3437C67.0757 46.1942 66.8303 47.0651 66.6469 47.95C65.1908 51.5422 63.3984 54.9888 61.2938 58.2437C60.1146 56.3106 59.6296 54.0333 59.9188 51.7875C60.1859 50.5252 60.5324 49.2811 60.9563 48.0625C60.9406 47.9031 60.7656 47.15 59.0063 47.125C57.2469 47.1 55.7313 47.4594 55.5688 47.925C55.4063 48.3906 55.2 49.4875 54.8344 50.5312C54.4688 51.575 50.2 61.1125 49.0813 63.5719C48.5063 64.8219 48.0094 65.8406 47.6594 66.5281C47.6428 66.5728 47.6219 66.6157 47.5969 66.6562C47.2844 67.2469 47.1188 67.5687 47.1188 67.5687V67.5844C46.8781 68.0156 46.6219 68.4156 46.4938 68.4156C46.2703 67.5228 46.281 66.5874 46.525 65.7C47.15 62.3906 48.6813 57.2469 48.6656 57.0687C48.6656 56.9719 48.9531 56.0781 47.675 55.6156C47.3786 55.4745 47.0457 55.4289 46.7222 55.4848C46.3987 55.5408 46.1006 55.6957 45.8688 55.9281C45.7563 55.9281 45.6781 56.2 45.6781 56.2C45.6781 56.2 47.0688 50.4156 43.025 50.4156C41.4503 50.7324 39.9548 51.3608 38.6266 52.264C37.2983 53.1673 36.1641 54.327 35.2906 55.675C34.2031 56.2656 31.8875 57.5281 29.4094 58.8875C28.4719 59.4156 27.4906 59.9437 26.5813 60.45C26.5188 60.3875 26.4531 60.3062 26.3906 60.2437C21.4688 55 12.4219 51.3 12.8125 44.2844C12.9563 41.7281 13.8344 35.0156 30.1844 26.8625C43.6406 20.2312 54.35 22.0687 56.2031 26.1437C58.8563 31.9625 50.4656 42.7656 36.5625 44.3312C35.0244 44.6433 33.4358 44.6056 31.9143 44.221C30.3927 43.8365 28.977 43.1148 27.7719 42.1094C27.0375 41.3094 26.925 41.2625 26.6531 41.4219C26.2063 41.6625 26.4938 42.3812 26.6531 42.7969C27.1835 43.7567 27.9009 44.6005 28.7629 45.2784C29.6249 45.9563 30.6141 46.4546 31.6719 46.7437C37.1414 47.9257 42.8439 47.3606 47.975 45.1281C56.4125 41.8687 62.975 32.8062 61.05 25.2156C59.1156 17.5125 46.3313 14.9719 34.2313 19.2781C26.6524 21.8283 19.6495 25.8453 13.6219 31.1C6.95626 37.3344 5.90314 42.75 6.33439 45.0219C7.89689 53.0781 18.9938 58.3187 23.4344 62.2094C23.2094 62.3375 23.0031 62.45 22.8281 62.5437C20.6063 63.6469 12.1375 68.075 10.0156 72.7562C7.61876 78.0687 10.4 81.8656 12.2375 82.3781C15.0063 83.0409 17.9129 82.8226 20.5516 81.7536C23.1903 80.6847 25.4294 78.8185 26.9563 76.4156C28.2565 74.4225 29.0557 72.1447 29.2858 69.7762C29.516 67.4077 29.1703 65.0186 28.2781 62.8125C28.2631 62.7768 28.2419 62.744 28.2156 62.7156L29.9563 61.6937C31.0906 61.0219 32.2094 60.4 33.1688 59.8875C32.5182 61.7639 32.1363 63.7229 32.0344 65.7062C31.8135 68.7461 32.7438 71.758 34.6406 74.1437C34.9293 74.3922 35.2643 74.5809 35.6264 74.6989C35.9885 74.8169 36.3704 74.8619 36.75 74.8312C38.625 74.8312 39.4844 73.2687 40.425 71.4125C41.575 69.1437 42.6125 66.5062 42.6125 66.5062C42.6125 66.5062 41.3188 73.6344 44.8344 73.6344C46.1125 73.6344 47.4063 71.9719 47.9844 71.1344V71.15C47.9844 71.15 48.0156 71.1031 48.0813 70.9906L48.2875 70.6562V70.625C48.8 69.7312 49.95 67.7 51.6594 64.3281C53.8656 59.9812 55.9906 54.5469 55.9906 54.5469C56.1956 55.7412 56.4785 56.9208 56.8375 58.0781C57.3522 59.481 57.9609 60.8477 58.6594 62.1687C58.1469 62.8875 57.8281 63.2875 57.8281 63.2875L57.8438 63.3031C57.4281 63.8469 56.9813 64.4375 56.4844 65.0125C55.0061 66.6378 53.6345 68.357 52.3781 70.1594C52.1915 70.4621 52.1273 70.8246 52.1987 71.173C52.2702 71.5215 52.4718 71.8295 52.7625 72.0344C53.4204 72.3767 54.1702 72.5004 54.9031 72.3875C56.0077 72.3251 57.0937 72.0769 58.1156 71.6531C59.1032 71.3056 60.0348 70.8161 60.8813 70.2C61.7539 69.5955 62.4563 68.7766 62.9209 67.8221C63.3855 66.8677 63.5968 65.8097 63.5344 64.75C63.4361 63.4151 63.0951 62.1093 62.5281 60.8969C62.6875 60.6719 62.8406 60.45 62.9906 60.225C64.7673 57.5731 66.3686 54.8078 67.7844 51.9469C67.9893 53.1412 68.2722 54.3208 68.6313 55.4781C69.0558 56.6905 69.5783 57.8662 70.1938 58.9937C68.1498 60.5663 66.5399 62.6333 65.5156 65C64.5094 67.9094 65.2906 69.2187 66.7656 69.5219C67.5727 69.5775 68.3798 69.4122 69.1 69.0437C70.159 68.6957 71.1566 68.1832 72.0563 67.525C73.0049 66.9651 73.7994 66.1782 74.3684 65.2351C74.9373 64.2919 75.2628 63.2221 75.3156 62.1219C75.2447 61.0236 74.9967 59.9441 74.5813 58.925C77.2785 57.8713 80.2029 57.5353 83.0688 57.95C90.675 58.8437 92.1781 63.5906 91.8906 65.5906C91.7558 66.2996 91.4707 66.9716 91.0546 67.5612C90.6385 68.1509 90.101 68.6447 89.4781 69.0094C88.95 69.3437 88.775 69.4562 88.8219 69.6969C88.8844 70.05 89.1344 70.0312 89.5875 69.9687C90.7339 69.6124 91.7453 68.917 92.4885 67.9742C93.2316 67.0313 93.6714 65.8854 93.75 64.6875C93.9906 60 89.5156 54.8594 81.6031 54.9062L81.5938 54.9125ZM22.9063 74.6875C20.3813 77.4375 16.8656 78.475 15.3469 77.5969C13.7156 76.6594 14.3563 72.5969 17.4563 69.6844C19.2952 68.029 21.2827 66.5467 23.3938 65.2562C23.7625 65.0312 24.3063 64.7125 24.9563 64.3187L25.1313 64.2219L25.5156 63.9812C26.0695 65.8368 26.1197 67.8064 25.6611 69.6878C25.2026 71.5692 24.2518 73.2948 22.9063 74.6875ZM41.2844 62.1875C40.4063 64.3281 38.5688 69.8125 37.45 69.5062C36.4906 69.25 35.8875 65.0937 37.2594 60.9875C37.952 59.0108 38.961 57.1596 40.2469 55.5062C41.6219 53.9719 43.1406 53.4594 43.5063 54.0844C43.1727 56.8809 42.4238 59.612 41.2844 62.1875ZM56.45 69.4437C56.0813 69.6344 55.7313 69.7562 55.5719 69.6687C55.4594 69.6062 55.7313 69.3562 55.7313 69.3562C55.7313 69.3562 57.6344 67.3094 58.3844 66.3844C58.8156 65.8406 59.3219 65.2031 59.8719 64.4812V64.6875C59.8719 67.1312 57.5063 68.7781 56.4531 69.45L56.45 69.4437ZM68.15 66.775C67.8781 66.5844 67.925 65.9437 68.8375 63.9469C69.472 62.6644 70.3584 61.5229 71.4438 60.5906C71.6101 61.0636 71.6967 61.5611 71.7 62.0625C71.7123 63.1298 71.3711 64.1712 70.7295 65.0242C70.0879 65.8772 69.182 66.4939 68.1531 66.7781L68.15 66.775Z" fill="#CD6799"/>
</svg>
