<svg width="100" height="100" viewBox="0 0 100 100" fill="none" xmlns="http://www.w3.org/2000/svg">
<path d="M2.41875 69.2187C2.41875 67.7187 2.62812 66.4531 3.04375 65.4281C3.44487 64.4509 4.06874 63.5809 4.86562 62.8875C5.65315 62.2393 6.5691 61.7653 7.55312 61.4968C8.57812 61.2093 9.67812 61.0656 10.8656 61.0656C11.9359 61.0588 13.0018 61.204 14.0312 61.4968C15.0531 61.7843 15.95 62.2468 16.7187 62.8875C17.4875 63.5281 18.0937 64.375 18.5406 65.4281C18.9875 66.4531 19.2125 67.7156 19.2125 69.2187C19.2125 70.6562 18.9875 71.8875 18.5406 72.9125C18.1298 73.8843 17.5074 74.7522 16.7187 75.4531C15.9531 76.125 15.0562 76.6031 14.0312 76.8906C13.0075 77.2143 11.9393 77.3756 10.8656 77.3687C9.67812 77.3687 8.57812 77.2124 7.55312 76.8906C6.56063 76.6195 5.64201 76.1282 4.86562 75.4531C4.09687 74.7812 3.49062 73.9343 3.04375 72.9125C2.62812 71.8906 2.41875 70.6625 2.41875 69.2187ZM29.4687 99.6749C27.9062 99.6749 26.35 99.5624 24.7187 99.3406C23.0875 99.1187 21.7281 98.8281 20.6437 98.4781V86.9687C21.6344 87.2875 22.5625 87.5125 23.4562 87.6406C24.4221 87.8077 25.401 87.8882 26.3812 87.8812C27.1812 87.8812 27.9312 87.7562 28.6312 87.4968C29.379 87.2783 30.0365 86.8246 30.5062 86.2031C31.05 85.5968 31.4812 84.7656 31.8 83.7093C32.1187 82.6875 32.2781 81.3593 32.2781 79.7281V22.4624H46.9031V81.8843C46.9031 84.3468 46.5844 86.6468 45.9437 88.7593C45.3885 90.8442 44.3537 92.7704 42.9219 94.3843C41.5469 96.0156 39.7562 97.2906 37.5469 98.2218C35.3375 99.1531 32.6562 99.6124 29.4906 99.6124M31.6781 8.53745C31.6781 7.16245 31.8875 6.02807 32.3031 5.09995C32.7187 4.17182 33.2781 3.43745 33.9812 2.8937C34.7156 2.3187 35.5625 1.9187 36.5219 1.6937C37.5125 1.4687 38.5531 1.35932 39.6406 1.35932C40.673 1.35225 41.7027 1.46445 42.7094 1.6937C43.622 1.89608 44.4755 2.30678 45.2031 2.8937C45.9609 3.46588 46.5556 4.22653 46.9281 5.09995C47.375 5.99682 47.6 7.1312 47.6 8.53745C47.6 9.8812 47.375 11.0156 46.9281 11.9749C46.5125 12.9031 45.9375 13.6531 45.2031 14.2249C44.4609 14.7884 43.6128 15.1965 42.7094 15.4249C41.7029 15.6552 40.6731 15.7685 39.6406 15.7624C38.5531 15.7624 37.5156 15.6531 36.5219 15.4249C35.6067 15.1893 34.7446 14.7821 33.9812 14.2249C33.2781 13.6499 32.7187 12.8968 32.3031 11.9749C31.8875 11.0531 31.6781 9.91245 31.6781 8.53745ZM97.6781 60.1562C97.6781 62.9687 97.1656 65.4312 96.1156 67.5406C95.1129 69.629 93.6141 71.44 91.75 72.8156C89.8625 74.2218 87.5781 75.2781 84.8906 75.9812C82.2031 76.6843 79.2031 77.0375 75.875 77.0375C74.1156 77.0375 72.4844 76.9749 70.9844 76.8499C69.5519 76.7621 68.1263 76.5857 66.7156 76.3218C65.3719 76.0656 64.0781 75.7468 62.8312 75.3624C61.5403 74.9619 60.2754 74.4818 59.0437 73.9249V61.8437C60.3875 62.5156 61.7937 63.0937 63.2625 63.6656L67.7219 65.1031L71.9906 66.0156C73.2746 66.2291 74.5734 66.3409 75.875 66.35C77.1875 66.35 78.3062 66.2406 79.2312 66.0156C80.1594 65.7593 80.9094 65.3906 81.4812 65.0093C82.0875 64.5625 82.5219 64.0499 82.775 63.4468C83.0604 62.8475 83.2078 62.1919 83.2062 61.5281C83.2062 60.8562 83.0937 60.2656 82.8719 59.7531C82.6844 59.2093 82.2469 58.65 81.4812 58.075C80.7469 57.4687 79.6594 56.825 78.2188 56.0625L72.5125 53.25L66.4187 50.1312C64.725 49.0749 63.3187 47.9437 62.2 46.6312C61.11 45.3477 60.279 43.8652 59.7531 42.2656C59.2094 40.6031 58.9406 38.6406 58.9406 36.3656C58.9406 33.8718 59.4187 31.6968 60.3781 29.8437C61.3297 27.9661 62.7293 26.3518 64.4531 25.1437C66.2125 23.8937 68.3219 22.9687 70.7844 22.3312C73.2781 21.6906 76.0437 21.3718 79.0812 21.3718C82.2781 21.3718 85.3156 21.7406 88.1937 22.4749C91.0719 23.2093 94.0281 24.3124 97.0687 25.7874L92.6562 36.1468C90.225 34.9968 87.9062 34.0531 85.7031 33.3187C83.5709 32.596 81.3357 32.2234 79.0844 32.2156C77.1031 32.2156 75.6625 32.5687 74.7719 33.2718C73.9094 33.9749 73.4781 34.9343 73.4781 36.1468C73.4781 36.7874 73.5906 37.3968 73.8125 37.8749C74.0375 38.3562 74.4844 38.8656 75.1562 39.4374C75.8281 39.9499 76.7719 40.5249 77.9844 41.1624L82.7344 43.4124L88.8719 46.3812C90.5836 47.2623 92.1653 48.376 93.5719 49.6906C94.8708 50.9206 95.8999 52.4073 96.5937 54.0562C97.2969 55.7187 97.65 57.7343 97.65 60.1" fill="#555588"/>
</svg>
