<svg width="75" height="75" viewBox="0 0 75 75" fill="none" xmlns="http://www.w3.org/2000/svg">
<circle cx="37.5" cy="37.5" r="37.5" fill="url(#paint0_linear_13_195)"/>
<path d="M27.7023 36.3C29.5556 36.3 30.9489 36.6933 31.8823 37.48C32.8289 38.2667 33.3023 39.34 33.3023 40.7C33.3023 42.4467 32.7289 43.8467 31.5823 44.9C30.4489 45.94 28.7689 46.6 26.5423 46.88C26.2756 46.9067 26.0823 46.92 25.9623 46.92C25.5223 46.92 25.1956 46.84 24.9823 46.68C24.7689 46.5333 24.6623 46.3267 24.6623 46.06C24.6623 45.82 24.7423 45.62 24.9023 45.46C25.0623 45.2867 25.2889 45.1733 25.5823 45.12C27.2223 44.7867 28.4223 44.3 29.1823 43.66C29.9556 43.02 30.3423 42.1667 30.3423 41.1C30.3423 40.2733 30.0823 39.6467 29.5623 39.22C29.0556 38.78 28.2423 38.56 27.1223 38.56C26.1489 38.56 25.0823 38.7 23.9223 38.98C23.7756 39.86 23.6156 41.02 23.4423 42.46C23.2823 43.8867 23.1756 44.9667 23.1223 45.7C23.0956 46.14 22.9489 46.46 22.6823 46.66C22.4156 46.8733 22.0623 46.98 21.6223 46.98C21.1823 46.98 20.8423 46.8733 20.6023 46.66C20.3756 46.4467 20.2623 46.1667 20.2623 45.82C20.2623 45.0067 20.4889 43.0267 20.9423 39.88L20.8823 39.9C20.6823 39.9667 20.5089 40 20.3623 40C20.0823 40 19.8489 39.9067 19.6623 39.72C19.4889 39.5333 19.4023 39.3 19.4023 39.02C19.4023 38.46 19.6689 38.08 20.2023 37.88C20.8423 37.64 21.2089 37.5067 21.3023 37.48C21.4489 36.6 21.7289 35.14 22.1423 33.1C22.1823 32.86 22.2289 32.6133 22.2823 32.36C22.3489 32.1067 22.4089 31.8333 22.4623 31.54C21.0089 31.6333 19.9689 31.8533 19.3423 32.2C18.7156 32.5333 18.4023 33.0467 18.4023 33.74C18.4023 34.1933 18.5356 34.6267 18.8023 35.04C18.8689 35.1333 18.9023 35.2467 18.9023 35.38C18.9023 35.62 18.7823 35.8333 18.5423 36.02C18.3156 36.2067 18.0489 36.3 17.7423 36.3C17.2889 36.3 16.9423 36.1933 16.7023 35.98C16.5156 35.82 16.3556 35.5267 16.2223 35.1C16.0889 34.66 16.0223 34.22 16.0223 33.78C16.0223 32.1667 16.7356 30.9867 18.1623 30.24C19.5889 29.48 21.8089 29.1 24.8223 29.1C26.5023 29.1 27.7956 29.0867 28.7023 29.06C29.6223 29.0333 30.5023 28.98 31.3423 28.9C31.7423 28.86 32.0289 28.9267 32.2023 29.1C32.3889 29.26 32.4823 29.52 32.4823 29.88C32.4823 30.2933 32.3689 30.6067 32.1423 30.82C31.9289 31.0333 31.5489 31.1667 31.0023 31.22C30.0556 31.3267 29.1823 31.4 28.3823 31.44C27.5823 31.4667 26.5556 31.48 25.3023 31.48C25.1156 32.4267 24.8223 33.9533 24.4223 36.06C24.4089 36.1933 24.3756 36.3933 24.3223 36.66C25.5223 36.42 26.6489 36.3 27.7023 36.3ZM46.9551 46.1C46.0351 46.1 45.2017 45.8733 44.4551 45.42C43.7217 44.9667 43.1417 44.3133 42.7151 43.46C42.2884 42.5933 42.0751 41.5733 42.0751 40.4C42.0751 38.3733 42.5084 36.5 43.3751 34.78C44.2417 33.0467 45.5217 31.66 47.2151 30.62C48.9084 29.5667 50.9417 29.04 53.3151 29.04C53.9284 29.04 54.5817 29.0867 55.2751 29.18C55.9817 29.2733 56.6217 29.4133 57.1951 29.6C57.5684 29.7067 57.7551 29.9733 57.7551 30.4C57.7551 30.7467 57.6217 31.0733 57.3551 31.38C57.1017 31.6867 56.8017 31.84 56.4551 31.84C56.3484 31.84 56.2684 31.8333 56.2151 31.82C55.5217 31.66 54.9284 31.5467 54.4351 31.48C53.9417 31.4 53.4217 31.36 52.8751 31.36C51.1817 31.36 49.7417 31.7733 48.5551 32.6C47.3684 33.4133 46.4817 34.4933 45.8951 35.84C45.3084 37.1867 45.0151 38.64 45.0151 40.2C45.0151 41.3333 45.2351 42.2133 45.6751 42.84C46.1284 43.4533 46.7151 43.76 47.4351 43.76C48.2484 43.76 48.9617 43.4267 49.5751 42.76C50.1884 42.0933 50.7484 41.0133 51.2551 39.52C51.7617 38.0267 52.2617 36 52.7551 33.44C52.8351 33.0667 52.9951 32.8133 53.2351 32.68C53.4751 32.5467 53.7951 32.48 54.1951 32.48C55.1417 32.48 55.6151 32.7867 55.6151 33.4C55.6151 33.5067 55.5951 33.64 55.5551 33.8C55.2084 35.0933 54.8884 36.5267 54.5951 38.1C54.3151 39.66 54.1751 40.8467 54.1751 41.66C54.1751 42.38 54.2817 42.9067 54.4951 43.24C54.7084 43.56 55.0351 43.72 55.4751 43.72C55.9017 43.72 56.3084 43.58 56.6951 43.3C57.0817 43.0067 57.5684 42.5133 58.1551 41.82C58.3151 41.6333 58.4951 41.54 58.6951 41.54C58.8684 41.54 59.0017 41.62 59.0951 41.78C59.2017 41.94 59.2551 42.16 59.2551 42.44C59.2551 42.96 59.1284 43.3733 58.8751 43.68C58.2217 44.4667 57.5817 45.0667 56.9551 45.48C56.3284 45.8933 55.5617 46.1 54.6551 46.1C53.7217 46.1 52.9684 45.8333 52.3951 45.3C51.8217 44.7533 51.4617 43.9867 51.3151 43C50.3284 45.0667 48.8751 46.1 46.9551 46.1Z" fill="white"/>
<defs>
<linearGradient id="paint0_linear_13_195" x1="37.5" y1="-1.2964e-06" x2="81" y2="91" gradientUnits="userSpaceOnUse">
<stop offset="0.182292" stop-color="#BD2BB7"/>
<stop offset="1" stop-color="#2A1E9F"/>
</linearGradient>
</defs>
</svg>
