<svg width="35" height="35" viewBox="0 0 35 35" fill="none" xmlns="http://www.w3.org/2000/svg">
<g clip-path="url(#clip0_5_41)">
<path d="M24.9015 17.2925C22.4826 15.0973 18.7796 14.9902 15.8116 14.0067C15.2653 13.7701 15.3377 13.8086 15.085 13.4418C15.0234 13.335 14.9933 13.209 14.9933 13.0568C14.854 11.8906 17.7426 11.6925 18.9784 12.1527C20.5195 12.6448 21.1806 14.3931 22.9138 14.3402C25.7352 14.3301 26.5153 10.6845 24.2228 9.10212C20.9633 6.66682 15.2016 6.41937 11.6155 8.47387C11.0681 8.80182 11.5311 9.62397 12.096 9.31947C15.4889 7.44977 20.5114 7.65942 23.6184 9.86302C25.1808 10.8948 24.8199 13.3424 22.9142 13.3683C21.9121 13.3679 21.3091 12.4684 20.5825 11.9175C19.7967 11.2858 18.6442 10.9449 17.5263 10.9568C14.6293 10.9568 14.0214 12.0988 14.0214 13.0568C14.0578 14.7543 15.7966 15.0798 17.1864 15.3965C19.5587 15.9789 22.3759 16.3464 24.24 18.0044C26.403 19.9819 25.619 23.8977 23.19 25.3096C22.6541 25.6533 23.1648 26.4674 23.7083 26.1321C26.67 24.3824 27.5401 19.6998 24.9015 17.2925Z" fill="black"/>
<path d="M32.4481 20.5289C34.7858 10.1255 24.8839 0.218759 14.4781 2.55956C6.57895 -3.06669 -3.0765 6.58911 2.56165 14.475C1.5204 19.4033 3.18815 24.7986 6.7102 28.2968C10.2091 31.8182 15.6009 33.487 20.532 32.445C28.4991 38.0366 38.0432 28.5033 32.4481 20.5289ZM20.6496 31.4391C10.1976 33.8132 1.4091 24.2505 3.46675 14.0606C-1.799 6.94506 6.93805 -1.80529 14.0647 3.46466C24.2707 1.46231 33.7291 10.0482 31.4531 20.5482C31.4244 20.6864 31.4576 20.8306 31.5437 20.943C36.905 28.3052 27.8362 36.7812 20.6496 31.4391Z" fill="black"/>
<path d="M20.7508 26.3732C17.9795 27.1418 14.343 26.6749 12.0743 25.4282C10.5255 24.597 9.7727 23.6569 9.7727 22.5544C9.80105 20.4222 12.0109 20.405 13.1449 21.8278C14.2782 23.169 15.8389 24.1234 17.7359 24.0681C19.3917 24.1462 21.3265 23.2029 21.2618 21.6948C21.1127 19.9749 20.2849 19.8573 17.8731 19.2105C16.5798 18.8696 13.8572 18.3099 12.7277 17.7996C11.6515 17.3194 10.591 16.6096 10.1335 15.4592C9.5963 14.1918 9.6383 12.1555 10.4055 10.9715C10.7282 10.4272 9.9127 9.92287 9.5732 10.4689C8.302 12.5948 8.5449 16.0171 10.5528 17.6075C12.342 19.1587 15.3695 19.5342 17.6414 20.1551C19.5541 20.6857 20.2468 20.6948 20.2898 21.6951C20.2898 21.9317 20.2261 22.2866 19.6763 22.6384C18.3687 23.4521 15.9089 23.1455 14.7833 22.0815C13.7784 21.1764 12.888 19.8457 11.4044 19.8674C9.78145 19.8324 8.7962 21.0224 8.8011 22.5547C8.91135 26.2451 14.4091 27.7673 17.9459 27.7165C19.0043 27.7165 20.0354 27.58 21.0101 27.3105C21.2691 27.2391 21.4207 26.9714 21.3493 26.7124C21.2768 26.453 21.0084 26.3018 20.7508 26.3732Z" fill="black"/>
</g>
<defs>
<clipPath id="clip0_5_41">
<rect width="35" height="35" fill="white"/>
</clipPath>
</defs>
</svg>
