<svg width="35" height="35" viewBox="0 0 35 35" fill="none" xmlns="http://www.w3.org/2000/svg">
<path d="M33.292 8.76537C33.0131 8.72092 32.7534 8.91062 32.7093 9.18782L29.6384 28.4728C29.6366 28.4837 29.6352 28.4963 29.6342 28.5071C29.6328 28.5225 29.4795 30.0419 28.4589 30.2823C27.3455 30.5434 25.2165 29.2512 24.7611 28.8872C24.6796 28.8263 24.4167 28.6541 23.8291 28.2702C22.119 27.153 18.1146 24.5364 16.4654 23.1409C15.8239 22.624 15.7553 21.917 16.5603 21.2656C19.4754 18.5934 23.0395 15.1991 25.2273 13.0112C25.6592 12.5793 26.6522 11.3025 26.0659 10.5941C25.5679 9.99212 24.5168 10.3239 22.4413 11.7351L10.8238 19.5625C10.2809 19.9447 10.8255 20.7714 11.3925 20.4067C11.5136 20.5786 28.2121 8.41992 24.5077 12.2916C22.329 14.4707 18.7779 17.8521 15.8809 20.5079C14.6668 21.5369 14.6195 22.8984 15.805 23.9162C17.5046 25.3543 21.4001 27.8995 23.2719 29.1224C23.7104 29.4091 24.0888 29.6562 24.1374 29.6922C24.5147 29.9936 26.5468 31.3323 28.1488 31.332C30.0895 31.3862 30.6369 29.0888 30.6453 28.6181L33.7138 9.34812C33.7586 9.07057 33.5692 8.80982 33.292 8.76537Z" fill="black"/>
<path d="M33.4068 4.04494C32.417 3.30189 30.8714 3.87099 30.6894 3.94169C26.3809 5.72634 8.2474 13.2366 3.17835 15.3083C0.883051 16.1178 0.142801 17.6816 1.69295 18.768C1.72585 18.789 1.76085 18.8055 1.7976 18.8181C1.8263 18.8279 4.71905 19.8184 7.17185 20.5541C7.81795 20.7333 8.10075 19.7844 7.46445 19.5793C5.23915 18.9119 2.6453 18.032 2.19555 17.8783C1.4602 17.3183 2.1924 16.8276 3.55705 16.2526C8.6891 14.1547 26.6938 6.69759 31.066 4.88669C31.9109 4.59864 33.3123 4.36694 33.0946 6.01509C33.0697 6.29509 33.2769 6.54184 33.557 6.56669C33.8328 6.59154 34.0841 6.38469 34.1086 6.10469C34.1926 5.15059 33.9567 4.45759 33.4068 4.04494Z" fill="black"/>
</svg>
