<svg width="35" height="35" viewBox="0 0 35 35" fill="none" xmlns="http://www.w3.org/2000/svg">
<g clip-path="url(#clip0_5_24)">
<path d="M22.4654 0.875H12.5671C3.2914 0.875 0.890401 3.27215 0.890401 12.5335V22.4315C0.452901 36.6863 9.34535 33.7221 20.055 34.1075C20.6927 34.0903 20.6913 33.1541 20.055 33.1394H12.5503C3.7569 33.1394 1.8585 31.2379 1.8585 22.4319V12.5335C1.8585 3.74115 3.76005 1.84275 12.5671 1.84275C34.4627 1.7388 33.2556 0.557901 33.1569 22.4483C33.1569 31.241 31.2554 33.139 22.4487 33.139C21.8123 33.1453 21.8141 34.0994 22.4487 34.1071C31.7243 34.1071 34.125 31.71 34.125 22.4483V12.5507C34.125 3.27565 31.7278 0.875 22.4654 0.875Z" fill="black"/>
<path d="M19.9493 21.0332C20.4894 20.9016 22.5005 22.898 23.0538 23.5872C23.7696 24.3838 24.2015 24.8647 25.0415 24.8647H27.3945C28.0497 24.8647 28.3787 24.6053 28.5394 24.388C29.2387 23.2613 27.9717 21.9712 26.5881 20.321C26.1125 19.7057 25.1797 19.0309 24.8605 18.4292C26.5325 15.6835 30.2001 11.2255 27.0585 11.1258H24.7058C24.2239 11.1258 23.5774 11.2934 23.2323 12.0988C23.2208 12.1275 22.0497 14.9684 20.4477 16.7461C19.9878 17.1734 19.7729 17.4499 19.8118 17.1388V14.1053C19.803 13.4725 18.8542 13.4669 18.8437 14.1053V17.1388C18.8437 17.9329 19.2861 18.2948 19.6973 18.2948C21.7725 18.1163 24.1766 12.3399 24.1252 12.4729C24.2277 12.2332 24.3558 12.0942 24.7055 12.0942H27.0582C27.2444 12.0942 27.3312 12.1278 27.3305 12.1163C27.335 12.1317 27.3389 12.1999 27.3004 12.3284C27.3263 12.5055 26.5346 14.3188 24.2004 17.6316C23.1581 18.9119 25.0887 19.9577 25.8552 20.9545C26.3897 21.5897 28.6419 24.0425 27.3945 23.8976H25.0415C24.6505 23.8976 24.4409 23.6838 23.7738 22.9411C22.7479 21.7203 20.817 19.9185 19.9493 20.0665C18.9777 20.0665 18.8437 20.6867 18.8437 21.357V23.4741C18.8437 23.7289 18.8437 23.8976 17.6474 23.8976C15.1942 23.8976 12.6599 22.3667 10.8647 19.7981C7.90895 15.6702 7.24115 12.663 7.24115 12.2815C7.24115 12.0144 7.0245 11.7974 6.7571 11.7974C5.3158 11.753 7.50435 16.7667 10.0741 20.356C12.0474 23.1791 14.8782 24.8643 17.647 24.8643C18.9462 24.8643 19.8114 24.6277 19.8114 23.4731V21.3559C19.8314 21.0934 19.7659 21.0147 19.9493 21.0332Z" fill="black"/>
<path d="M11.4279 12.3291C11.2077 11.7467 10.8913 11.1255 9.9162 11.1255H7.92995C7.29785 11.136 7.2905 12.0817 7.92995 12.0936H9.9162C10.2172 12.0936 10.3131 12.1181 10.5168 12.6564C11.4359 15.3587 13.5104 19.2689 14.8572 19.2689C15.7784 19.2689 15.7784 18.3407 15.7784 17.8945L15.7773 14.4018C15.5243 11.3645 12.6214 12.2059 18.7961 12.1055C18.8041 12.1195 18.8437 12.2 18.8437 12.4667C18.8524 13.1023 19.802 13.1026 19.8118 12.4667C19.8118 11.577 19.4229 11.1258 18.6557 11.1258H14.958C13.7998 11.1717 13.5902 12.3816 14.2597 13.0242C14.4935 13.3158 14.7588 13.6458 14.8103 14.433C14.8033 14.6069 14.8288 18.2144 14.7921 18.2651C14.2156 17.9295 12.5507 15.6303 11.4279 12.3291Z" fill="black"/>
</g>
<defs>
<clipPath id="clip0_5_24">
<rect width="35" height="35" fill="white"/>
</clipPath>
</defs>
</svg>
